<svg xmlns="http://www.w3.org/2000/svg" width="30" height="30" viewBox="0 0 30 30">
  <g>
    <path d="M12.2,3.3a2.8,2.8,0,0,1,5.6,0,2.8,2.8,0,0,1-5.6,0Z" fill="none" stroke="#daa043" stroke-linejoin="bevel" stroke-width="0.5" stroke-dasharray="0.97 0.19"/>
    <g>
      <line x1="11.03" y1="6.58" x2="10.78" y2="7.01" fill="none" stroke="#daa043" stroke-linejoin="bevel" stroke-width="0.5"/>
      <path d="M10.68,7.18,5.93,15.42a.77.77,0,0,0,.29,1.06l.61.36a.8.8,0,0,0,1.07-.29l3.3-5.73" fill="none" stroke="#daa043" stroke-linejoin="bevel" stroke-width="0.5" stroke-dasharray="1.01 0.2"/>
      <line x1="11.26" y1="10.73" x2="11.51" y2="10.3" fill="none" stroke="#daa043" stroke-linejoin="bevel" stroke-width="0.5"/>
    </g>
    <g>
      <path d="M12.2,6.23a1.21,1.21,0,0,0-.49-.05" fill="none" stroke="#daa043" stroke-linejoin="bevel" stroke-width="0.5"/>
      <path d="M11.41,6.26a.74.74,0,0,0-.38.32" fill="none" stroke="#daa043" stroke-linejoin="bevel" stroke-width="0.5"/>
    </g>
    <g>
      <line x1="18.38" y1="10.69" x2="18.64" y2="11.12" fill="none" stroke="#daa043" stroke-linejoin="bevel" stroke-width="0.5"/>
      <path d="M18.73,11.29l3.09,5.26a.8.8,0,0,0,1.07.29l.61-.36a.77.77,0,0,0,.29-1.06l-5.1-8.84a1,1,0,0,0-.24-.26" fill="none" stroke="#daa043" stroke-linejoin="bevel" stroke-width="0.5" stroke-dasharray="0.98 0.2"/>
      <path d="M18.36,6.27a.8.8,0,0,0-.48-.07" fill="none" stroke="#daa043" stroke-linejoin="bevel" stroke-width="0.5"/>
    </g>
    <g>
      <line x1="11.56" y1="17.99" x2="11.56" y2="18.49" fill="none" stroke="#daa043" stroke-linejoin="bevel" stroke-width="0.5"/>
      <path d="M11.56,18.69V28a.78.78,0,0,0,.78.78h.71a.78.78,0,0,0,.78-.78V18.58" fill="none" stroke="#daa043" stroke-linejoin="bevel" stroke-width="0.5" stroke-dasharray="1.02 0.2"/>
      <line x1="13.83" y1="18.48" x2="13.83" y2="17.98" fill="none" stroke="#daa043" stroke-linejoin="bevel" stroke-width="0.5"/>
    </g>
    <g>
      <line x1="16.11" y1="17.98" x2="16.11" y2="18.48" fill="none" stroke="#daa043" stroke-linejoin="bevel" stroke-width="0.5"/>
      <path d="M16.11,18.68V28a.79.79,0,0,0,.79.78h.7a.78.78,0,0,0,.78-.78V18.67" fill="none" stroke="#daa043" stroke-linejoin="bevel" stroke-width="0.5" stroke-dasharray="1.02 0.2"/>
      <line x1="18.38" y1="18.57" x2="18.38" y2="18.07" fill="none" stroke="#daa043" stroke-linejoin="bevel" stroke-width="0.5"/>
    </g>
    <g>
      <line x1="18.38" y1="6.43" x2="18.38" y2="6.93" fill="none" stroke="#daa043" stroke-linejoin="bevel" stroke-width="0.5"/>
      <line x1="18.38" y1="7.12" x2="18.38" y2="17.25" fill="none" stroke="#daa043" stroke-linejoin="bevel" stroke-width="0.5" stroke-dasharray="0.95 0.19"/>
      <polyline points="18.38 17.35 18.38 17.85 17.88 17.85" fill="none" stroke="#daa043" stroke-linejoin="bevel" stroke-width="0.5"/>
      <line x1="17.69" y1="17.85" x2="12.15" y2="17.85" fill="none" stroke="#daa043" stroke-linejoin="bevel" stroke-width="0.5" stroke-dasharray="0.94 0.19"/>
      <polyline points="12.06 17.85 11.56 17.85 11.56 17.35" fill="none" stroke="#daa043" stroke-linejoin="bevel" stroke-width="0.5"/>
      <line x1="11.56" y1="17.14" x2="11.56" y2="7.18" fill="none" stroke="#daa043" stroke-linejoin="bevel" stroke-width="0.5" stroke-dasharray="1.05 0.21"/>
      <line x1="11.56" y1="7.08" x2="11.56" y2="6.58" fill="none" stroke="#daa043" stroke-linejoin="bevel" stroke-width="0.5"/>
    </g>
    <g>
      <line x1="11.86" y1="6.23" x2="12.36" y2="6.23" fill="none" stroke="#daa043" stroke-linejoin="bevel" stroke-width="0.5"/>
      <line x1="12.58" y1="6.23" x2="17.58" y2="6.23" fill="none" stroke="#daa043" stroke-linejoin="bevel" stroke-width="0.5" stroke-dasharray="1.07 0.21"/>
      <line x1="17.69" y1="6.23" x2="18.19" y2="6.23" fill="none" stroke="#daa043" stroke-linejoin="bevel" stroke-width="0.5"/>
    </g>
  </g>
</svg>
